<?xml version="1.0" encoding="UTF-8"?>
<svg xmlns="http://www.w3.org/2000/svg"
     viewBox="0 0 24 24"
     width="24"
     height="24"
     fill="currentColor">
  <path d="M12 .5C5.73.5.5 5.73.5 12c0 5.09 3.29 9.42 7.86 10.95.58.11.79-.25.79-.56
  0-.28-.01-1.02-.02-2-3.2.7-3.88-1.54-3.88-1.54-.53-1.34-1.3-1.7-1.3-1.7
  -1.06-.73.08-.72.08-.72 1.17.08 1.78 1.2 1.78 1.2
  1.04 1.78 2.73 1.27 3.4.97.11-.75.41-1.27.74-1.56
  -2.55-.29-5.23-1.27-5.23-5.66 0-1.25.45-2.27 1.2-3.07
  -.12-.3-.52-1.52.11-3.16 0 0 .97-.31 3.18 1.17
  .92-.26 1.9-.39 2.88-.39.98 0 1.96.13 2.88.39
  2.2-1.48 3.18-1.17 3.18-1.17.63 1.64.23 2.86.11 3.16
  .75.8 1.2 1.82 1.2 3.07 0 4.4-2.69 5.36-5.25 5.64
  .42.36.79 1.08.79 2.18 0 1.57-.01 2.83-.01 3.22
  0 .31.21.68.8.56C20.71 21.42 24 17.09 24 12
  24 5.73 18.27.5 12 .5z"/>
</svg>
